<svg width="100" height="104" viewBox="0 0 100 104" fill="none" xmlns="http://www.w3.org/2000/svg">
<rect y="2" width="100" height="100" rx="50" fill="black"/>
<path d="M40.5986 95.4444L40.5593 93.1109L39.8682 94.4681L39.6981 92.5212L39.0577 93.6304L38.9463 91.9023L38.4367 92.6249L38.1944 91.2834L37.7063 91.6486L37.5598 91.1018L36.853 91.5256L36.7065 90.9789L35.9996 91.4027L35.9625 90.8266L35.2556 91.2504L35.1091 90.7037L34.4023 91.1275L34.3358 90.4421L33.5196 90.8952L33.4532 90.2098L32.7464 90.6336L32.6799 89.9482L31.8637 90.4013L31.9066 89.6866L30.9811 90.169L31.104 89.3157L30.1785 89.7981L30.3307 89.0541L29.2665 89.4564L29.5281 88.6831L28.464 89.0855L28.6963 88.2028L27.552 88.7438L27.8937 87.8319L26.7494 88.3729L27.0618 87.3516L25.9175 87.8926L26.3392 86.842L25.0856 87.4123L25.5073 86.3617L24.3631 86.9027L24.8941 85.8228L23.5019 86.3131L24.1423 85.2039L22.7501 85.6941L23.4998 84.5556L21.9689 84.9658L22.9667 83.8781L21.2678 84.0989L22.3749 82.9819L20.5374 83.1226L21.9218 82.1657L20.0257 82.0877L22.0662 80.955L19.2425 79.602L21.7068 79.1761L19.6699 77.2607L22.1206 77.6588L20.3454 74.9701L22.7824 76.1923L22.2394 73.2906L23.5536 74.6965L23.1063 72.5895L24.3405 74.134L23.9732 71.8884L25.1274 73.5716L25.0081 71.3767L25.9436 73.1185L25.9336 70.8943L26.7598 72.6654L26.7791 70.5506L27.6053 72.3216L27.6246 70.2069L28.3707 72.1165L28.4701 69.8631L29.3256 71.7435L29.3449 69.6287L30.091 71.5384L30.1904 69.285L30.9658 71.304L31.0652 69.0506L31.8406 71.0696L31.94 68.8162L32.7154 70.8352L32.8148 68.5818L33.5902 70.6008L33.6895 68.3474L34.4649 70.3664L34.5936 68.2223L35.3397 70.132L35.4684 67.9879L36.2145 69.8976L36.3725 67.8629L37.1186 69.7725L37.2473 67.6285L38.0227 69.6475L38.29 67.5835L38.9561 69.6318L39.1941 67.4584L39.8602 69.5067L40.2369 67.4134L40.7936 69.491L41.4183 67.4485L41.727 69.4753L42.4903 67.5128L42.7697 69.4303L43.5623 67.5772L43.7324 69.524L44.445 67.8094L44.5857 69.6469L45.437 68.0124L45.4391 69.7699L46.2102 68.274L46.2924 69.8928L47.0636 68.397L47.0364 70.0451L47.8369 68.6586L47.8604 70.0587L48.4715 68.8401L48.6044 70.2109L49.2155 68.9924L49.3484 70.3632L49.9595 69.1446L50.0631 70.4061L50.5941 69.3262L50.8071 70.5583L51.3088 69.3691L51.5218 70.6012L51.9142 69.4413L52.3458 70.6148L52.6289 69.4842L53.0312 70.5483L53.3436 69.5271L53.7459 70.5912L54.1676 69.5407L54.5406 70.4955L54.853 69.4742L55.3354 70.3997L55.6477 69.3785L56.1301 70.304L56.4425 69.2827L56.8956 70.0989L57.0986 69.1069L57.661 69.8938L57.864 68.9018L58.3971 69.5793L58.5201 68.726L59.1333 69.2649L59.2562 68.4116L59.8401 68.8411L59.8537 68.0171L60.4376 68.4466L60.4512 67.6226L61.1445 68.0228L61.1288 67.0894L61.7634 67.271L61.4997 66.2868L62.3237 66.3004L61.98 65.4549L62.308 65.367L61.8628 65.0175L62.5696 64.5937L61.6791 63.8948L61.8685 63.7268L61.3725 63.6253L61.7435 62.8227L60.4235 62.7076L60.5543 62.321L59.9275 62.6061L59.9704 61.8914L59.1542 62.3445L59.117 61.7685L58.4395 62.3016L58.373 61.6162L57.8048 62.1201L57.6583 61.5733L57.0101 62.2158L56.9436 61.5304L56.2954 62.1729L56.1196 61.5169L55.6393 62.3487L55.4342 61.5833L54.8446 62.4445L54.6395 61.6791L54.0791 62.6496L53.8447 61.7748L53.2844 62.7453L53.05 61.8706L52.519 62.9504L52.1967 61.7476L51.3962 63.1341L51.2633 61.7633L50.3241 63.0697L50.1698 62.0563L49.5001 63.0561L49.4551 62.0134L48.8147 63.1226L48.7111 61.8612L48.1 63.0797L47.8871 61.8476L47.276 63.0661L47.1724 61.8047L46.4226 62.9432L46.319 61.6817L45.7079 62.9003L45.6043 61.6388L44.9639 62.748L44.751 61.5159L44.1106 62.6251L44.007 61.3636L43.3959 62.5822L43.183 61.35L42.5426 62.4592L42.439 61.1978L41.7986 62.307L41.5856 61.0748L41.0546 62.1547L40.8416 60.9226L40.2013 62.0318L40.0176 60.909L39.4573 61.8795L39.2736 60.7567L38.6039 61.7566L38.4203 60.6338L37.8599 61.6043L37.7056 60.5909L37.0066 61.4814L36.8522 60.468L36.2626 61.3291L36.1083 60.3157L35.4093 61.2062L35.2842 60.3021L34.6946 61.1633L34.5402 60.1499L33.8705 61.1497L33.7162 60.1363L33.0172 61.0268L32.8921 60.1227L32.3025 60.9839L32.1775 60.0798L31.5078 61.0796L31.3534 60.0662L30.6837 61.066L30.5294 60.0526L29.889 61.1618L29.7053 60.039L28.9556 61.1775L28.8813 60.0254L28.1609 61.2732L28.0572 60.0118L27.3661 61.369L27.2332 59.9982L26.4327 61.3847L26.5185 59.9553L25.638 61.4804L25.6945 59.9417L24.7046 61.4961L24.8411 59.8187L23.8806 61.4825L24.0171 59.8051L22.9472 61.4982L23.1638 59.6822L21.9845 61.4046L22.2811 59.4499L21.0218 61.3109L21.4785 59.079L19.8912 61.0279L20.6681 58.2413L18.286 60.286L19.5882 57.7103L16.8116 59.1575L18.399 57.2085L15.8918 58.3491L17.5085 56.5095L15.0814 57.5115L16.8074 55.6426L14.3803 56.6445L16.0262 54.9143L13.6792 55.7776L15.4638 54.1274L12.9781 54.9107L14.9306 53.4499L12.525 54.0945L14.3682 52.663L11.9332 53.1982L13.9151 51.8468L11.5602 52.2434L13.5714 51.0013L11.0778 51.3179L13.2276 50.1558L10.8141 50.3337L12.9639 49.1717L10.4117 49.2695L12.6202 48.3262L10.148 48.2854L12.3565 47.3421L9.9937 47.272L12.1221 46.4673L9.83935 46.2585L11.997 45.5632L9.82365 45.3251L11.872 44.6591L9.77864 44.2824L11.7469 43.755L9.76294 43.349L11.7312 42.8216L9.74724 42.4156L11.9342 41.8296L9.89164 41.2049L11.9185 40.8962L9.92668 40.0236L11.9829 39.8242L10.1297 39.0316L12.0765 38.8615L10.442 38.0103L12.6368 37.891L10.7973 36.2743L13.0292 36.731L11.8165 34.8292L13.283 35.4911L12.4647 34.1867L13.8219 34.8779L13.1129 33.5442L14.3315 34.1553L13.7612 32.9017L15.009 33.6222L14.3294 32.3979L15.5479 33.009L14.9776 31.7554L16.0868 32.3958L15.6551 31.2223L16.6257 31.7826L16.2233 30.7184L17.3032 31.2495L16.8716 30.0759L17.8421 30.6363L17.4398 29.5721L18.381 30.0231L18.088 28.9296L18.9492 29.5192L18.6562 28.4257L19.4881 28.906L19.1951 27.8125L20.027 28.2928L19.7633 27.3087L20.5952 27.789L20.3022 26.6955L21.1341 27.1758L20.8411 26.0823L21.7823 26.5333L21.38 25.4691L22.3212 25.9201L21.9189 24.8559L22.7507 25.3362L22.4577 24.2427L23.2896 24.723L22.9966 23.6295L23.8285 24.1098L23.5062 22.907L24.3674 23.4966L24.0451 22.2938L24.9063 22.8834L24.584 21.6806L25.4452 22.2703L25.1229 21.0674L25.9841 21.6571L25.5231 20.3742L26.523 21.0439L26.062 19.761L27.0619 20.4307L26.6009 19.1478L27.6301 19.9268L27.1105 18.4252L28.2783 19.2843L27.6494 17.8121L28.8172 18.6711L28.1883 17.1989L29.3561 18.0579L28.7272 16.5857L29.895 17.4447L29.3754 15.9432L30.5725 16.9116L29.9143 15.33L31.2501 16.3785L30.5626 14.6875L31.9276 15.8453L31.3202 14.0157L32.9117 15.5816L32.5151 13.2267L33.808 14.9899L33.7687 12.6564L34.6456 14.1794L34.6142 12.3127L35.5204 13.945L35.5984 12.049L36.3659 13.6013L36.4438 11.7052L37.2407 13.3669L37.3186 11.4708L38.1155 13.1325L38.3028 11.2071L39.0196 13.0074L39.2069 11.0821L39.8651 12.6637L40.191 10.8184L40.7691 12.5386L41.0951 10.6933L41.7826 12.3843L41.9992 10.5683L42.6574 12.1499L43.0126 10.4139L43.5908 12.1342L43.946 10.3982L44.4948 12.0091L44.9594 10.2439L45.3989 11.8841L45.8928 10.2282L46.3323 11.8684L46.8262 10.2125L47.2364 11.7433L47.7596 10.1968L48.0605 11.7569L48.6129 10.3197L48.9645 11.6319L49.437 10.3333L49.8179 11.7548L50.3704 10.3176L50.6419 11.7684L51.2237 10.4405L51.466 11.782L52.0771 10.5635L52.29 11.7956L53.0397 10.6571L53.1433 11.9186L53.8931 10.7801L53.9967 12.0415L54.7464 10.903L54.85 12.1645L55.6291 11.1353L55.7034 12.2874L56.5917 11.229L56.6953 12.4904L57.4744 11.4613L57.5487 12.6134L58.357 11.6936L58.402 12.7363L59.2397 11.9259L59.2847 12.9686L60.013 12.1875L60.058 13.2302L60.8956 12.4197L60.9406 13.4625L61.8075 12.7614L61.8232 13.6948L62.5808 13.023L62.5965 13.9564L63.4635 13.2553L63.4792 14.1887L64.2368 13.5169L64.2525 14.4503L65.1487 13.8585L65.055 14.8212L66.0606 14.2002L65.9377 15.0535L66.9726 14.5418L66.8496 15.3952L67.7752 14.9128L67.6522 15.7661L68.6871 15.2544L68.4548 16.137L69.4897 15.6253L69.2867 16.6173L70.3216 16.1056L70.0893 16.9883L71.1242 16.4766L70.8118 17.4979L71.9561 16.9569L71.6144 17.8688L72.7587 17.3278L72.3077 18.2691L73.5905 17.8081L73.0302 18.7786L74.3131 18.3177L73.7527 19.2882L75.145 18.798L74.3952 19.9365L76.0355 19.497L75.0377 20.5847L76.8166 20.2253L75.6295 21.481L77.547 21.2016L76.1919 22.2678L78.1974 22.3165L75.8288 23.5371L78.9884 25.2689L76.1082 25.4547L77.9635 28.0047L75.585 27.0012L76.8135 29.8365L74.6166 28.1983L74.9117 31.0492L73.7575 29.3661L73.8768 31.5609L72.7226 29.8778L72.7033 31.9926L71.7678 30.2509L71.6391 32.3949L70.8423 30.7333L70.655 32.6586L69.8874 31.1063L69.7509 32.7837L69.122 31.3114L68.9854 32.9888L68.2179 31.4364L68.0814 33.1138L67.4525 31.6415L67.1773 33.2389L66.5484 31.7666L66.3825 33.3346L65.7829 31.9717L65.4784 33.4597L64.9081 32.2061L64.713 33.6648L64.1134 32.3018L63.9183 33.7605L63.348 32.5069L63.0142 33.8856L62.4439 32.632L62.1394 34.12L61.5691 32.8664L61.2646 34.3544L60.6943 33.1008L60.3898 34.5888L59.8195 33.3352L59.515 34.8232L59.0541 33.5403L58.6402 35.0576L58.1793 33.7747L57.7654 35.292L57.2752 33.8997L56.7813 35.5557L56.3711 34.0248L55.7972 35.8194L55.387 34.2885L54.7837 35.9737L54.4536 34.3042L53.7703 36.1281L53.5495 34.4292L52.7568 36.2824L52.5067 34.4742L51.7141 36.3274L51.5734 34.4899L50.7807 36.3431L50.7786 34.5857L49.9567 36.3295L49.8452 34.6014L49.1326 36.3159L49.1305 34.5585L48.418 36.273L48.3358 34.6542L47.7033 36.2301L47.6504 34.7207L47.0979 36.1579L46.965 34.7872L46.6312 36.1658L46.389 34.8243L46.1645 36.1736L45.7836 34.7521L45.5885 36.2108L45.1275 34.9279L45.0124 36.2479L44.4714 35.1037L44.575 36.3651L43.954 35.3596L44.1377 36.4823L43.5459 35.5861L43.7296 36.7089L43.0578 35.9513L43.4308 36.9061L42.6204 36.0685L43.1614 37.2127L42.7161 36.8632L42.9134 37.162L42.3881 36.9511L42.724 37.3299L42.9427 37.2713L42.8626 37.41L43.0013 37.49L42.8412 37.7673L42.6811 38.0446L43.1478 38.0368L43.4465 37.8395L43.0463 38.5328L43.7238 37.9996L43.3529 38.8022L43.9718 38.0504L43.7181 39.2904L44.4971 38.2612L44.3527 39.4719L44.9931 38.3627L44.9073 39.7921L45.4891 38.4642L45.5419 39.9736L46.0944 38.5364L46.1473 40.0458L46.7291 38.718L46.8913 40.1981L47.3344 38.7902L47.6353 40.3503L48.0784 38.9424L48.35 40.3932L48.7931 38.9853L49.0646 40.4361L49.5371 39.1375L49.918 40.5591L50.2518 39.1804L50.6327 40.602L51.0758 39.194L51.4567 40.6156L51.8198 39.3463L52.2808 40.6292L52.6439 39.3599L53.1048 40.6428L53.5772 39.3442L53.9581 40.7657L54.5399 39.4378L54.8329 40.5313L55.2546 39.4807L55.5476 40.5742L56.0787 39.4943L56.3717 40.5878L56.9027 39.5079L57.1664 40.4921L57.6974 39.4122L57.9611 40.3963L58.4922 39.3164L58.7852 40.4099L59.2869 39.2207L59.66 40.1755L60.0817 39.1249L60.4547 40.0798L60.9564 38.8905L61.2494 39.984L61.7219 38.6854L62.0442 39.8883L62.5166 38.5897L62.919 39.6539L63.3914 38.3553L63.7137 39.5581L64.2662 38.1209L64.5085 39.4624L65.0316 37.9158L65.3832 39.228L65.9064 37.6814L66.2073 39.2416L66.8105 37.5563L67.1114 39.1165L67.6853 37.3219L67.9354 39.1301L68.728 37.2769L68.8688 39.1144L69.6614 37.2612L69.7221 39.2373L70.7042 37.2162L70.7141 39.4403L71.9149 37.3606L71.6983 39.1766L72.6588 37.5129L72.413 39.2195L73.3735 37.5558L73.2448 39.6998L74.4749 37.7295L74.2075 39.7935L75.4376 37.8231L75.0902 40.0258L76.4296 38.0261L75.9728 40.2581L77.4215 38.2291L76.9648 40.4611L78.4135 38.4321L77.8767 40.8027L79.4348 38.7444L78.6793 41.1737L80.4854 39.1661L79.5913 41.5153L81.536 39.5878L80.4232 41.9956L82.5065 40.1482L81.2844 42.5852L83.4771 40.7085L82.1162 43.0655L84.3676 41.4075L82.8974 43.7938L85.2581 42.1065L83.5692 44.5514L86.0978 43.0535L84.3503 45.2797L86.9375 44.0005L85.1315 46.008L87.5586 45.006L85.8033 46.7656L88.1503 45.9023L86.2857 47.6911L88.662 46.9372L86.7681 48.6166L89.0644 48.0014L87.2504 49.5422L89.496 49.1749L87.6235 50.497L89.789 50.2684L87.9965 51.4519L90.082 51.3619L88.3696 52.4067L90.2364 52.3753L88.604 53.2815L90.3107 53.5274L88.7583 54.2949L90.465 54.5408L89.022 55.2791L90.51 55.5836L89.1764 56.2925L90.4457 56.6556L89.1921 57.2259L90.3813 57.7276L89.2078 58.1593L90.397 58.661L89.2235 59.0927L90.2233 59.7624L89.2392 60.026L90.1297 60.725L89.1455 60.9887L90.036 61.6877L89.1905 62.0315L89.833 62.6797L89.0676 62.8848L89.7394 63.6424L88.974 63.8475L89.5071 64.525L88.7417 64.7301L89.2534 65.765L88.4293 65.7514L88.5837 66.7649L87.949 66.5833L88.0741 67.4874L87.4394 67.3059L87.5645 68.21L87.0392 67.9991L87.1349 68.7938L86.5003 68.6123L86.6253 69.5164L86.0707 69.1962L86.2251 70.2096L85.5612 69.9187L85.6862 70.8228L85.0223 70.5319L85.286 71.5161L84.5927 71.1158L84.7764 72.2386L84.0831 71.8384L84.3468 72.8225L83.5442 72.4516L83.8372 73.545L83.0053 73.0648L83.4077 74.1289L82.5758 73.6486L82.8981 74.8515L82.0369 74.2618L82.3592 75.4647L81.498 74.875L81.959 76.1579L80.9884 75.5976L81.4494 76.8805L80.5589 76.1815L81.0491 77.5737L80.02 76.7947L80.6489 78.2669L79.6197 77.4879L80.2486 78.9602L79.0809 78.1011L79.739 79.6827L78.5713 78.8236L79.3388 80.376L78.1417 79.4075L78.9386 81.0692L77.6321 80.1301L78.5676 81.8718L77.0932 80.7433L78.058 82.5943L76.6637 81.3272L77.6578 83.2876L76.1541 82.0497L77.1189 83.9008L75.6152 82.6629L76.7186 84.594L75.0763 83.2761L76.1798 85.2072L74.5081 83.7799L75.6409 85.8204L73.9692 84.3931L75.102 86.4336L73.4303 85.0063L74.4537 87.0761L72.7528 85.5395L73.9148 87.6893L72.1846 86.0433L73.3466 88.1931L71.5071 86.5765L72.6691 88.7263L70.9389 87.0803L71.9916 89.2594L70.2613 87.6134L71.314 89.7926L69.5838 88.1466L70.6365 90.3257L68.8477 88.461L69.8496 90.8882L67.5862 88.5646L68.4359 91.7357L66.69 89.1564L66.9343 92.2553L65.9109 90.1855L66.0595 92.4897L65.0362 90.4199L65.1848 92.7241L64.1614 90.6543L64.31 92.9585L63.4252 90.9688L63.4352 93.1929L62.5504 91.2032L62.5604 93.4273L61.785 91.4083L61.8243 93.7417L60.9102 91.6427L60.9495 93.9761L60.1155 91.7384L59.9653 94.2398L59.1606 92.1115L59.0905 94.4742L58.2858 92.3459L58.1357 94.8473L57.4111 92.5803L57.2609 95.0817L56.5363 92.8147L56.2768 95.3454L55.6615 93.0491L55.402 95.5798L54.7574 93.1741L54.5272 95.8142L53.8826 93.4085L53.5431 96.0779L52.9785 93.5336L52.639 96.2029L52.0744 93.6586L51.6548 96.4666L51.0903 93.9223L50.7507 96.5917L50.2955 94.0181L49.956 96.6874L49.3915 94.1431L49.0226 96.7031L48.5967 94.2389L48.0892 96.7188L47.7727 94.2253L47.2652 96.7052L46.8393 94.241L46.3318 96.7209L46.0152 94.2274L45.5078 96.7073L45.1912 94.2138L44.5451 96.6137L44.3672 94.2002L43.721 96.6001L43.5431 94.1866L42.8677 96.4771L42.6898 94.0636L41.9343 96.4928L41.9029 94.6261L41.4383 96.3913L41.3912 93.5912L40.5986 95.4444ZM42.7025 37.6873L43.0013 37.49L42.6439 37.4686L42.5346 37.4979L42.7025 37.6873ZM41.9664 38.0017L42.4838 37.7459L41.9371 37.8924L41.4997 38.0096L41.9664 38.0017Z" fill="#3678FF"/>
</svg>
